# xmcd CD database file
#
# Track frame offsets:
#	150
#	15542
#	30757
#	42827
#	59245
#	67235
#	77577
#	95002
#	109925
#	116797
#	132850
#	140507
#	150557
#	163020
#	172137
#
# Disc length: 2626 seconds
#
# Revision: 2
# Processed by: cddbd v1.5.1PL2 Copyright (c) Steve Scherf et al.
# Submitted via: CDex 1.51
#
DISCID=d00a400f
DTITLE=Original Soundtrack - Mahogany
DYEAR=1975
DGENRE=Soundtrack
TTITLE0=Theme From Mahogany (Do You Know Where You're Going To)
TTITLE1=Feeling Again
TTITLE2=You Don't Ever Have To Be Alone
TTITLE3=Can You Hear It In My Music
TTITLE4=Christian's Theme
TTITLE5=After You
TTITLE6=Theme From Mahogany (Instrumental)
TTITLE7=My Hero Is A Gun
TTITLE8=Cat Fight
TTITLE9=Erucu
TTITLE10=Let's Go Back To Day One
TTITLE11=Tracy
TTITLE12=She's The Ideal Girl
TTITLE13=Sweets (And Other Things)
TTITLE14=Mahogany Suite
EXTD=YEAR: 1975
EXTT0=
EXTT1=
EXTT2=
EXTT3=
EXTT4=
EXTT5=
EXTT6=
EXTT7=
EXTT8=
EXTT9=
EXTT10=
EXTT11=
EXTT12=
EXTT13=
EXTT14=
PLAYORDER=
